<svg width="36" height="36" viewBox="0 0 36 36" fill="none" xmlns="http://www.w3.org/2000/svg">
<path d="M16.05 10.0875C16.35 10.3875 16.494 10.75 16.482 11.175C16.47 11.6 16.3135 11.9625 16.0125 12.2625L11.775 16.5H28.5C28.925 16.5 29.2815 16.644 29.5695 16.932C29.8575 17.22 30.001 17.576 30 18C30 18.425 29.856 18.7815 29.568 19.0695C29.28 19.3575 28.924 19.501 28.5 19.5L11.775 19.5L16.05 23.775C16.35 24.075 16.5 24.4315 16.5 24.8445C16.5 25.2575 16.35 25.6135 16.05 25.9125C15.75 26.2125 15.3935 26.3625 14.9805 26.3625C14.5675 26.3625 14.2115 26.2125 13.9125 25.9125L7.05 19.05C6.9 18.9 6.79349 18.7375 6.73049 18.5625C6.66749 18.3875 6.63649 18.2 6.63749 18C6.63749 17.8 6.669 17.6125 6.732 17.4375C6.795 17.2625 6.901 17.1 7.05 16.95L13.95 10.05C14.225 9.77499 14.5685 9.63749 14.9805 9.63749C15.3925 9.63749 15.749 9.78749 16.05 10.0875Z" fill="black"/>
</svg>
